<?xml version="1.0" encoding="UTF-8" standalone="no"?>
<!DOCTYPE svg PUBLIC "-//W3C//DTD SVG 1.1//EN"
 "http://www.w3.org/Graphics/SVG/1.1/DTD/svg11.dtd">
<!-- Generated by graphviz version 2.40.1 (0)
 -->
<!-- Title: G Pages: 1 -->
<svg width="184pt" height="184pt"
 viewBox="0.00 0.00 183.81 183.82" xmlns="http://www.w3.org/2000/svg" xmlns:xlink="http://www.w3.org/1999/xlink">
<g id="graph0" class="graph" transform="scale(1 1) rotate(0) translate(4 179.8188)">
<title>G</title>
<polygon fill="#ffffff" stroke="transparent" points="-4,4 -4,-179.8188 179.809,-179.8188 179.809,4 -4,4"/>
<!-- MiG 012 -->
<g id="node1" class="node">
<title>MiG 012</title>
<path fill="none" stroke="#000000" d="M119.4068,-124.6837C119.4068,-124.6837 65.4068,-124.6837 65.4068,-124.6837 59.4068,-124.6837 53.4068,-118.6837 53.4068,-112.6837 53.4068,-112.6837 53.4068,-100.6837 53.4068,-100.6837 53.4068,-94.6837 59.4068,-88.6837 65.4068,-88.6837 65.4068,-88.6837 119.4068,-88.6837 119.4068,-88.6837 125.4068,-88.6837 131.4068,-94.6837 131.4068,-100.6837 131.4068,-100.6837 131.4068,-112.6837 131.4068,-112.6837 131.4068,-118.6837 125.4068,-124.6837 119.4068,-124.6837"/>
<text text-anchor="middle" x="92.4068" y="-102.9837" font-family="Times,serif" font-size="14.00" fill="#000000">MiG 012</text>
</g>
<!-- t2 -->
<g id="node2" class="node">
<title>t2</title>
<path fill="none" stroke="#000000" d="M112.8231,-71.4133C112.8231,-71.4133 82.8231,-71.4133 82.8231,-71.4133 76.8231,-71.4133 70.8231,-65.4133 70.8231,-59.4133 70.8231,-59.4133 70.8231,-47.4133 70.8231,-47.4133 70.8231,-41.4133 76.8231,-35.4133 82.8231,-35.4133 82.8231,-35.4133 112.8231,-35.4133 112.8231,-35.4133 118.8231,-35.4133 124.8231,-41.4133 124.8231,-47.4133 124.8231,-47.4133 124.8231,-59.4133 124.8231,-59.4133 124.8231,-65.4133 118.8231,-71.4133 112.8231,-71.4133"/>
<text text-anchor="middle" x="97.8231" y="-49.7133" font-family="Times,serif" font-size="14.00" fill="#000000">t2</text>
</g>
<!-- MiG 012&#45;&#45;t2 -->
<g id="edge1" class="edge">
<title>MiG 012&#45;&#45;t2</title>
<path fill="none" stroke="#000000" d="M94.2405,-88.6488C94.8052,-83.095 95.4267,-76.9823 95.9913,-71.4297"/>
</g>
<!-- t3 -->
<g id="node3" class="node">
<title>t3</title>
<path fill="none" stroke="#000000" d="M75.388,-36C75.388,-36 45.388,-36 45.388,-36 39.388,-36 33.388,-30 33.388,-24 33.388,-24 33.388,-12 33.388,-12 33.388,-6 39.388,0 45.388,0 45.388,0 75.388,0 75.388,0 81.388,0 87.388,-6 87.388,-12 87.388,-12 87.388,-24 87.388,-24 87.388,-30 81.388,-36 75.388,-36"/>
<text text-anchor="middle" x="60.388" y="-14.3" font-family="Times,serif" font-size="14.00" fill="#000000">t3</text>
</g>
<!-- MiG 012&#45;&#45;t3 -->
<g id="edge2" class="edge">
<title>MiG 012&#45;&#45;t3</title>
<path fill="none" stroke="#000000" d="M85.7725,-88.3084C80.2406,-72.9866 72.4029,-51.2784 66.9042,-36.0484"/>
</g>
<!-- t4 -->
<g id="node4" class="node">
<title>t4</title>
<path fill="none" stroke="#000000" d="M42,-125.6678C42,-125.6678 12,-125.6678 12,-125.6678 6,-125.6678 0,-119.6678 0,-113.6678 0,-113.6678 0,-101.6678 0,-101.6678 0,-95.6678 6,-89.6678 12,-89.6678 12,-89.6678 42,-89.6678 42,-89.6678 48,-89.6678 54,-95.6678 54,-101.6678 54,-101.6678 54,-113.6678 54,-113.6678 54,-119.6678 48,-125.6678 42,-125.6678"/>
<text text-anchor="middle" x="27" y="-103.9678" font-family="Times,serif" font-size="14.00" fill="#000000">t4</text>
</g>
<!-- MiG 012&#45;&#45;t4 -->
<g id="edge3" class="edge">
<title>MiG 012&#45;&#45;t4</title>
<path fill="none" stroke="#000000" d="M53.2266,-107.2732C53.1177,-107.2748 53.009,-107.2765 52.9004,-107.2781"/>
</g>
<!-- t5 -->
<g id="node5" class="node">
<title>t5</title>
<path fill="none" stroke="#000000" d="M163.809,-175.8188C163.809,-175.8188 133.809,-175.8188 133.809,-175.8188 127.809,-175.8188 121.809,-169.8188 121.809,-163.8188 121.809,-163.8188 121.809,-151.8188 121.809,-151.8188 121.809,-145.8188 127.809,-139.8188 133.809,-139.8188 133.809,-139.8188 163.809,-139.8188 163.809,-139.8188 169.809,-139.8188 175.809,-145.8188 175.809,-151.8188 175.809,-151.8188 175.809,-163.8188 175.809,-163.8188 175.809,-169.8188 169.809,-175.8188 163.809,-175.8188"/>
<text text-anchor="middle" x="148.809" y="-154.1188" font-family="Times,serif" font-size="14.00" fill="#000000">t5</text>
</g>
<!-- MiG 012&#45;&#45;t5 -->
<g id="edge4" class="edge">
<title>MiG 012&#45;&#45;t5</title>
<path fill="none" stroke="#000000" d="M112.4509,-124.856C117.7703,-129.6787 123.5134,-134.8855 128.8294,-139.705"/>
</g>
<!-- t2&#45;&#45;t3 -->
<g id="edge5" class="edge">
<title>t2&#45;&#45;t3</title>
<path fill="none" stroke="#000000" d="M78.6669,-35.2917C78.523,-35.1556 78.3791,-35.0195 78.2353,-34.8834"/>
</g>
<!-- t2&#45;&#45;t4 -->
<g id="edge6" class="edge">
<title>t2&#45;&#45;t4</title>
<path fill="none" stroke="#000000" d="M74.2401,-71.4793C66.6751,-77.2745 58.2964,-83.693 50.7216,-89.4957"/>
</g>
</g>
</svg>
